<svg width="24" height="10" viewBox="0 0 24 10" fill="none" xmlns="http://www.w3.org/2000/svg" role="img" aria-label="Иконка ApplePay."><path fill-rule="evenodd" clip-rule="evenodd" d="M4.39 1.29c-.29.34-.74.6-1.19.57-.05-.46.17-.95.43-1.25C3.9.27 4.4.01 4.8 0c.04.48-.14.94-.41 1.29Zm.4.66c-.4-.03-.76.12-1.05.23-.19.08-.34.14-.47.14-.13 0-.3-.07-.48-.14-.25-.1-.53-.21-.82-.2-.67 0-1.3.39-1.64 1-.7 1.23-.18 3.05.5 4.05.33.5.73 1.03 1.26 1.01.23 0 .4-.08.57-.15.2-.08.4-.17.72-.17.31 0 .5.08.7.17.18.07.35.15.6.15.55-.01.9-.5 1.22-1 .36-.53.52-1.04.55-1.12V5.9h-.01a1.78 1.78 0 0 1-1.05-1.63c-.01-.96.73-1.45.84-1.53h.02c-.47-.7-1.2-.79-1.46-.8Zm3.77 6.03V.57h2.74c1.42 0 2.4.99 2.4 2.43 0 1.45-1 2.45-2.44 2.45H9.7v2.53H8.56Zm1.13-6.44H11c.98 0 1.55.53 1.55 1.47 0 .93-.57 1.47-1.55 1.47H9.7V1.54Zm7.76 5.55c-.3.58-.96.95-1.67.95-1.06 0-1.8-.64-1.8-1.6 0-.95.72-1.5 2.04-1.58l1.41-.08v-.41c0-.6-.39-.94-1.08-.94-.57 0-.99.3-1.07.76h-1.03c.04-.96.93-1.66 2.13-1.66 1.3 0 2.14.7 2.14 1.76V8h-1.05v-.9h-.02Zm-1.37.07c-.6 0-.99-.3-.99-.75 0-.46.37-.73 1.08-.78l1.26-.08v.42c0 .7-.58 1.19-1.35 1.19Zm5.93 1.11c-.46 1.3-.98 1.73-2.08 1.73-.09 0-.37-.01-.44-.03v-.89l.34.02c.5 0 .78-.21.95-.77l.1-.33-1.91-5.4h1.18l1.34 4.38h.02l1.34-4.38H24l-2 5.67Z" fill="#2F3250"/></svg>