<svg width="24" height="10" viewBox="0 0 24 10" fill="none" xmlns="http://www.w3.org/2000/svg" role="img" aria-label="Иконка GooglePay."><path fill-rule="evenodd" clip-rule="evenodd" d="M11.07 7.82V4.9h1.5c.6 0 1.13-.21 1.55-.62l.1-.1c.77-.85.72-2.18-.1-2.96a2.12 2.12 0 0 0-1.55-.63h-2.4v7.24h.9Zm0-3.82V1.47h1.52c.32 0 .63.12.87.36.48.48.5 1.29.02 1.8-.23.24-.55.38-.9.37h-1.51Zm7.38-.75a2.23 2.23 0 0 0-1.6-.55c-.85 0-1.5.33-1.93.97l.8.51a1.37 1.37 0 0 1 2.07-.32c.24.21.37.51.37.83v.21c-.34-.2-.78-.3-1.32-.3-.63 0-1.14.15-1.52.46-.37.3-.57.71-.57 1.23 0 .46.19.9.54 1.2.35.33.8.5 1.33.5.63 0 1.12-.29 1.5-.86h.04v.7h.87V4.76c0-.65-.2-1.15-.58-1.52Zm-2.46 3.66a.76.76 0 0 1-.3-.6c0-.28.12-.5.36-.68.25-.18.56-.27.93-.27.5-.01.9.1 1.18.34 0 .39-.15.73-.45 1.02-.27.28-.64.43-1.02.43-.25 0-.5-.08-.7-.24ZM20.97 10 24 2.87h-.98l-1.4 3.55h-.02l-1.44-3.55h-.98l1.98 4.63-1.12 2.5h.93Z" fill="#2F3250"/><path d="M7.94 4.25c0-.28-.02-.56-.07-.84H4.05V5h2.2c-.1.51-.4.98-.82 1.26v1.04h1.3c.77-.72 1.21-1.79 1.21-3.06Z" fill="#4285F4"/><path d="M4.05 8.32c1.1 0 2.02-.37 2.69-1l-1.3-1.05a2.43 2.43 0 0 1-3.65-1.32H.42v1.08a4.04 4.04 0 0 0 3.62 2.29Z" fill="#34A853"/><path d="M1.78 4.96a2.57 2.57 0 0 1 0-1.6V2.3H.43a4.22 4.22 0 0 0 0 3.74l1.35-1.07Z" fill="#FBBC04"/><path d="M4.05 1.65c.58-.01 1.14.21 1.56.62l1.16-1.19C6.03.38 5.06-.02 4.05 0 2.52 0 1.12.89.43 2.3l1.35 1.07a2.43 2.43 0 0 1 2.27-1.72Z" fill="#EA4335"/></svg>