<svg width="10" height="12" viewBox="0 0 10 12" fill="none" xmlns="http://www.w3.org/2000/svg" role="img" aria-label="Иконка локации."><path d="M5 0C2.25 0 0 2.16 0 4.8c0 3.24 4.38 6.9 4.56 7.08.13.06.32.12.44.12.13 0 .31-.06.44-.12C5.62 11.7 10 8.04 10 4.8 10 2.16 7.75 0 5 0Zm0 10.62C3.69 9.42 1.25 6.84 1.25 4.8c0-1.98 1.69-3.6 3.75-3.6a3.69 3.69 0 0 1 3.75 3.6c0 1.98-2.44 4.62-3.75 5.82ZM5 2.4a2.46 2.46 0 0 0-2.5 2.4c0 1.32 1.13 2.4 2.5 2.4 1.38 0 2.5-1.08 2.5-2.4 0-1.32-1.13-2.4-2.5-2.4ZM5 6c-.69 0-1.25-.54-1.25-1.2 0-.66.56-1.2 1.25-1.2s1.25.54 1.25 1.2C6.25 5.46 5.69 6 5 6Z" fill="#2F3250"/></svg>