<svg width="20" height="12" viewBox="0 0 20 12" fill="none" xmlns="http://www.w3.org/2000/svg" role="img" aria-label="Иконка Мастеркард."><path fill-rule="evenodd" clip-rule="evenodd" d="M10 10.57A6.08 6.08 0 0 1 0 6a6.08 6.08 0 0 1 10-4.57A6.08 6.08 0 0 1 20 6a6.08 6.08 0 0 1-10 4.57Z" fill="#ED0006"/><path fill-rule="evenodd" clip-rule="evenodd" d="M10 10.57a5.96 5.96 0 0 0 0-9.14A6.08 6.08 0 0 1 20 6a6.08 6.08 0 0 1-10 4.57Z" fill="#F9A000"/><path fill-rule="evenodd" clip-rule="evenodd" d="M10 10.57a5.96 5.96 0 0 0 0-9.14 5.96 5.96 0 0 0 0 9.14Z" fill="#FF5E00"/></svg>