<svg width="12" height="12" viewBox="0 0 12 12" fill="none" xmlns="http://www.w3.org/2000/svg" role="img" aria-label="Иконка телефонной трубки."><path d="M1.27 1.18h2.65l.86 2.14-1.38.91a.6.6 0 0 0-.26.5c0 .05 0 0 0 0a1.13 1.13 0 0 0 0 .09l.03.2a4.76 4.76 0 0 0 1.33 2.5 4.76 4.76 0 0 0 2.49 1.31 2.6 2.6 0 0 0 .27.03h.01s.07 0 0 0a.6.6 0 0 0 .53-.33l.4-.79 2.62.44v2.55a8.56 8.56 0 0 1-7.26-2.29 8.56 8.56 0 0 1-2.29-7.26Zm3.1 3.83 1.06-.7c.47-.32.65-.91.44-1.43L5.02.74A1.18 1.18 0 0 0 3.92 0H1.24C.7 0 .2.37.11.95c-.2 1.33-.47 5.24 2.61 8.33 3.09 3.08 7 2.81 8.33 2.6.58-.08.95-.58.95-1.12V8.18c0-.58-.42-1.07-.99-1.17L8.4 6.58a1.18 1.18 0 0 0-1.25.63l-.2.41a3.58 3.58 0 0 1-1.6-.95A3.58 3.58 0 0 1 4.36 5Z" fill="#2F3250"/></svg>