<svg width="24" height="8" viewBox="0 0 24 8" fill="none" xmlns="http://www.w3.org/2000/svg" role="img" aria-label="Иконка Виза."><path fill-rule="evenodd" clip-rule="evenodd" d="M6 7.94H3.92l-1.55-6.2c-.08-.3-.24-.55-.47-.67A6.56 6.56 0 0 0 0 .42V.18h3.35c.46 0 .8.36.86.77l.81 4.48L7.1.18h2.02L6 7.94Zm4.27 0H8.31L9.92.18h1.97l-1.62 7.76Zm4.15-5.61c.06-.42.4-.66.81-.66.64-.06 1.33.06 1.9.36l.35-1.67A4.78 4.78 0 0 0 15.7 0c-1.9 0-3.29 1.07-3.29 2.57 0 1.13.98 1.73 1.68 2.09.75.35 1.04.6.98.95 0 .54-.58.78-1.16.78-.69 0-1.38-.18-2.01-.48l-.35 1.67c.7.3 1.44.42 2.13.42 2.14.06 3.46-1.02 3.46-2.63 0-2.03-2.7-2.15-2.7-3.04ZM24 7.93 22.44.19h-1.67c-.35 0-.7.24-.8.6l-2.9 7.16h2.03l.4-1.14h2.48l.23 1.14H24Zm-2.94-5.66.57 2.92h-1.61l1.04-2.92Z" fill="#172B85"/></svg>