<svg width="12" height="12" viewBox="0 0 12 12" fill="none" xmlns="http://www.w3.org/2000/svg" role="img" aria-label="Иконка Yandex Pay."><path d="M12 4.89c-.06-.4-.4-.67-.88-.67h-.44c-.28-.04-.34.06-.34.3v3.47c0 .6-.57 1.24-1.23 1.37-2.07.5-4.15.97-6.22 1.47-.22.07-.47.07-.72.07-.1 0-.25-.07-.29-.17-.03-.07.07-.2.13-.27l.35-.2 1.16-.4C5.06 9.33 6.6 8.8 8.14 8.23c.69-.24 1.06-.74 1.06-1.37.04-2 0-4.04 0-6.05 0-.33-.15-.6-.5-.73C8.3-.1 7.92.04 7.57.2l-6.56 3.3C.38 3.86 0 4.32 0 5v5.7c0 .1 0 .2.03.27C.25 11.6.82 12 1.57 12h9.2c.35 0 .63-.07.88-.3.32-.27.32-.64.32-.97L12 4.9Zm-6.4-.6c.15-.44.5-.7 1-.77.34-.04.63.16.69.5.06.5-.5 1.1-1.1 1.1-.47 0-.76-.37-.6-.84Z" fill="#FD6727"/></svg>